<?xml version="1.0" encoding="utf-8"?>
<!-- Generator: Adobe Illustrator 21.1.0, SVG Export Plug-In . SVG Version: 6.00 Build 0)  -->
<svg version="1.1" id="Layer_1" xmlns="http://www.w3.org/2000/svg" xmlns:xlink="http://www.w3.org/1999/xlink" x="0px" y="0px"
	 viewBox="0 0 164.3 213.3" style="enable-background:new 0 0 164.3 213.3;" xml:space="preserve">
<style type="text/css">
	.st0{fill:#D3D3D3;}
	.st1{fill:#B5B5B5;}
	.st2{fill:#E9C0C0;}
	.st3{fill:#E7A2A1;}
	.st4{fill:#E48A8A;}
	.st5{fill:#574A42;}
	.st6{fill:#FFFFFF;}
	.st7{fill:#AEBF51;}
	.st8{fill:#C6D866;}
	.st9{fill:#E38A22;}
	.st10{fill:#D07A1E;}
	.st11{fill:#E5A14B;}
</style>
<g id="BACKGROUND">
</g>
<path class="st0" d="M117.5,165c0,24.6-14.7,44.6-32.8,44.6s-32.8-20-32.8-44.6s14.7-44.6,32.8-44.6
	C102.8,120.5,117.5,140.4,117.5,165"/>
<path class="st1" d="M84.7,204.9c-17.5,0-31.8-17.6-32.7-39.7c0,0.8-0.1,1.6-0.1,2.3c0,23.2,14.7,42.1,32.8,42.1
	s32.8-18.8,32.8-42.1c0-0.8,0-1.6-0.1-2.3C116.5,187.3,102.2,204.9,84.7,204.9"/>
<path class="st0" d="M67.6,179.9c0,9.4-4.6,17.1-10.3,17.1S47,189.4,47,179.9s4.6-17.1,10.3-17.1S67.6,170.5,67.6,179.9"/>
<path class="st0" d="M67.6,201.7c0,5.5-7.1,10-15.9,10s-15.9-4.5-15.9-10s7.1-10,15.9-10S67.6,196.2,67.6,201.7"/>
<path class="st1" d="M51.8,209.6c-8.2,0-14.9-3.9-15.8-8.9c-0.1,0.4-0.1,0.7-0.1,1.1c0,5.5,7.1,10,15.9,10s15.9-4.5,15.9-10
	c0-0.4,0-0.7-0.1-1.1C66.7,205.7,59.9,209.6,51.8,209.6"/>
<path class="st0" d="M102.9,179.9c0,9.4,4.6,17.1,10.3,17.1s10.3-7.7,10.3-17.1s-4.6-17.1-10.3-17.1S102.9,170.5,102.9,179.9"/>
<path class="st0" d="M102.9,201.7c0,5.5,7.1,10,15.9,10s15.9-4.5,15.9-10s-7.1-10-15.9-10S102.9,196.2,102.9,201.7"/>
<path class="st1" d="M118.7,209.6c-8.2,0-14.9-3.9-15.8-8.9c-0.1,0.4-0.1,0.7-0.1,1.1c0,5.5,7.1,10,15.9,10s15.9-4.5,15.9-10
	c0-0.4,0-0.7-0.1-1.1C133.6,205.7,126.9,209.6,118.7,209.6"/>
<g>
	<path class="st2" d="M106.7,173.3c0,14.6-9.6,26.5-21.4,26.5s-21.4-11.9-21.4-26.5s9.6-26.5,21.4-26.5S106.7,158.7,106.7,173.3"/>
	<path class="st3" d="M85.2,196c-11.3,0-20.6-10.9-21.3-24.6c0,0.6-0.1,1.3-0.1,1.9c0,14.6,9.6,26.5,21.4,26.5s21.4-11.9,21.4-26.5
		c0-0.6,0-1.3-0.1-1.9C105.8,185.2,96.6,196,85.2,196"/>
</g>
<path class="st0" d="M87.2,41c2.8,23.2-4,44.1-11.6,45C68,86.9,59.5,68.9,56.7,45.7C54,22.5,57.9,2.9,65.5,2S84.4,17.8,87.2,41"/>
<path class="st1" d="M65.5,2c-1,0.1-2,0.6-2.9,1.4c7.6-0.5,18.7,16.1,21.4,39c2.4,20.2-2.4,38.5-8.7,43.6c0.1,0,0.2,0,0.2,0
	c7.6-0.9,14.4-21.8,11.6-45C84.4,17.8,73.1,1.1,65.5,2"/>
<g>
	<path class="st3" d="M76.6,84.2c-0.1,0-0.1,0.1-0.2,0.1c-0.6,0.1-3.6-1-7.3-8.5c-3.6-7.1-6.3-17-7.7-27.9
		c-1.3-10.2-1.3-20,0.1-27.8c1.4-8.2,3.9-11.3,5-11.8c0.1,0,0.1-0.1,0.2-0.1c0.6-0.1,3.6,1,7.3,8.5c3.6,7.1,6.3,17,7.7,27.9
		c1.3,10.2,1.3,20-0.1,27.8C80.1,80.6,77.7,83.7,76.6,84.2"/>
	<path class="st4" d="M73.9,16.7c-3.7-7.4-6.7-8.6-7.3-8.5c0,0-0.1,0-0.2,0.1c-0.6,0.3-1.5,1.2-2.5,3.3c1.3,0.6,3.7,2.6,6.5,8.2
		c3.6,7.1,6.3,17,7.7,27.9c1.3,10.2,1.3,20-0.1,27.8c-0.7,3.9-1.6,6.7-2.5,8.5c0.4,0.2,0.7,0.2,0.8,0.2c0,0,0.1,0,0.2-0.1
		c1.1-0.5,3.5-3.6,5-11.8c1.4-7.8,1.4-17.7,0.1-27.8C80.3,33.7,77.5,23.8,73.9,16.7"/>
</g>
<path class="st0" d="M47.3,49.7c-4.6-5.5-9.4-10.3-14-14.2L18.7,63c1.3,1.9,2.8,3.8,4.4,5.7c15,17.9,34.8,27.3,40.7,22.4
	C69.7,86.2,62.3,67.7,47.3,49.7"/>
<path class="st1" d="M26.3,67.4c-2.1-2.6-4.1-5.1-5.8-7.7l-1.8,3.4c1.3,1.9,2.8,3.8,4.4,5.7c15,17.9,34.8,27.3,40.7,22.4
	c0.1-0.1,0.1-0.1,0.2-0.2C56,92.1,39.3,82.9,26.3,67.4"/>
<g>
	<path class="st3" d="M61.8,90.6c0.1,0,0.1-0.1,0.2-0.1c0.5-0.4,1.7-3.3-1.1-11.2c-2.7-7.5-8-16.3-15-24.7
		C39.4,46.7,33.8,41,27.1,36.7c-6.9-4.6-4.6,22,2.4,30.4c6.5,7.9,13.7,14.7,20.3,19C56.7,90.7,60.7,91.1,61.8,90.6"/>
	<path class="st4" d="M54.4,85.7c-6.6-4.3-13.8-11.1-20.3-19c-3.8-4.7-7.2-9.5-9.9-14.1L22,56.9c2.2,3.4,4.7,6.8,7.5,10.2
		c6.5,7.9,13.7,14.7,20.3,19c6.9,4.6,10.9,4.9,12,4.5c0.1,0,0.1-0.1,0.2-0.1c0.1-0.1,0.3-0.3,0.4-0.8C60.4,89.1,57.8,87.9,54.4,85.7
		"/>
</g>
<path class="st0" d="M31.2,69.7c-7.1,16.6-18.4,27.7-25,24.8C-0.5,91.6-0.2,75.8,7,59.3c7.2-16.6,18.4-27.6,25.1-24.7
	C38.8,37.4,38.4,53.2,31.2,69.7"/>
<path class="st0" d="M114.5,86.9c7.7,17.9-3.2,39.8-24.4,49c-21.2,9.2-44.6,2.1-52.4-15.8c-7.7-17.9,3.3-39.8,24.5-49
	C83.3,61.9,106.8,69,114.5,86.9"/>
<path class="st1" d="M87.7,130.2c-20.1,8.7-42.2,2.8-51-13.1c0.3,1,0.7,1.9,1.1,2.9c7.7,17.9,31.2,24.9,52.4,15.8
	c21.2-9.2,32.1-31.1,24.4-49c-0.4-0.9-0.9-1.9-1.4-2.7C118.6,101.5,107.8,121.6,87.7,130.2"/>
<g>
	<g>
		<g>
			<path class="st5" d="M78.3,108.9c-2.5,1-5.2,3.2-3.8,4.6c1.6,1.4,5.1,2.6,6.6,1.9c1.5-0.6,3.1-4,3.2-6.1
				C84.2,107.4,80.7,107.8,78.3,108.9"/>
			<path class="st6" d="M78.7,110.6c0.3,0.3-0.1,1-0.9,1.6s-1.6,0.8-1.9,0.5s0.1-1,0.9-1.6C77.6,110.5,78.4,110.3,78.7,110.6"/>
		</g>
		<path class="st3" d="M87.7,118.2l-2.4-0.3l-2.2-0.9l-2.3-2.2l0.2,2.6l-1.2,3l-2.3,2c1.4,1.8,4.3,2.3,7.1,1.1
			c2.6-1.1,4.2-3.4,4.1-5.6L87.7,118.2z"/>
		<g>
			<path class="st5" d="M76.9,123.5c-3.9,1.7-8.4-0.1-10-4c-0.1-0.3,0-0.7,0.3-0.8c0.3-0.1,0.7,0,0.8,0.3c1.4,3.2,5.2,4.7,8.4,3.3
				c3.2-1.4,4.7-5.2,3.3-8.4c-0.1-0.3,0-0.7,0.3-0.8s0.7,0,0.8,0.3C82.6,117.3,80.8,121.8,76.9,123.5"/>
			<path class="st5" d="M89.8,117.9c-3.9,1.7-8.4-0.1-10-4c-0.1-0.3,0-0.7,0.3-0.8c0.3-0.1,0.7,0,0.8,0.3c1.4,3.2,5.2,4.7,8.4,3.3
				c3.2-1.4,4.7-5.2,3.3-8.4c-0.1-0.3,0-0.7,0.3-0.8c0.3-0.1,0.7,0,0.8,0.3C95.5,111.8,93.7,116.3,89.8,117.9"/>
			<path class="st5" d="M68.8,118.3c0.2,0.4-0.3,1-1.1,1.3c-0.8,0.3-1.5,0.3-1.7-0.1s0.3-1,1.1-1.3S68.6,117.9,68.8,118.3"/>
			<path class="st5" d="M94.7,107.1c0.2,0.4-0.3,1-1.1,1.3c-0.8,0.3-1.5,0.3-1.7-0.1s0.3-1,1.1-1.3
				C93.8,106.7,94.5,106.7,94.7,107.1"/>
		</g>
	</g>
	<g>
		<path class="st3" d="M61,120.7c0.7,1.6-0.6,3.7-3,4.7c-2.3,1-4.8,0.5-5.5-1.1s0.6-3.7,3-4.7C57.8,118.7,60.3,119.1,61,120.7"/>
		<path class="st3" d="M109.5,99.8c0.7,1.6-0.6,3.7-3,4.7c-2.3,1-4.8,0.5-5.5-1.1s0.6-3.7,3-4.7C106.3,97.7,108.8,98.2,109.5,99.8"
			/>
	</g>
	<g>
		<g>
			<path class="st5" d="M63.6,108.4c1.3,2.9-0.1,6.3-3,7.6c-2.9,1.3-6.3-0.1-7.6-3s0.1-6.3,3-7.6S62.3,105.5,63.6,108.4"/>
			<path class="st6" d="M55.5,110.6c-0.4-0.8,0-1.8,0.9-2.2c0.8-0.4,1.8,0,2.2,0.9s0,1.8-0.9,2.2C56.8,111.8,55.9,111.4,55.5,110.6"
				/>
		</g>
		<g>
			<path class="st5" d="M88,97.9c1.3,2.9,4.7,4.3,7.6,3s4.3-4.7,3-7.6s-4.7-4.3-7.6-3C88,91.6,86.7,95,88,97.9"/>
			<path class="st6" d="M95.1,93.5c-0.4-0.8-1.3-1.2-2.2-0.9s-1.2,1.3-0.9,2.2c0.4,0.8,1.3,1.2,2.2,0.9
				C95.1,95.3,95.5,94.3,95.1,93.5"/>
		</g>
	</g>
</g>
<g>
	<g>
		<path class="st7" d="M137.1,138.2c0-0.7-0.7-1.3-1.8-1.8c0.3,0,0.5-0.1,0.8-0.1c7.5-1.5,13.2-4.5,12.9-6.7c-0.2-1.1-1.9-1.8-4.4-2
			c0.1-0.1,0.2-0.1,0.2-0.2c9.8-6.7,16.2-14.5,14.2-17.3c-1.9-2.8-11.5,0.4-21.3,7.1c-0.1,0.1-0.2,0.1-0.2,0.2
			c0.7-2.5,0.7-4.3-0.3-4.8c-1.9-1.1-6.8,3.2-10.8,9.6c-0.1,0.2-0.3,0.4-0.4,0.7c0-1.2-0.4-2.1-1-2.3c-1.8-0.7-5.4,3.6-8.1,9.6
			c-1.3,2.9-2.1,5.7-2.4,7.9c-0.7,0.5-1,1-1,1.5s0.4,0.9,1,1.3c0.1,0.7,0.4,1.2,0.9,1.4s1.1,0,1.8-0.4c2.1,0.5,5,0.7,8.3,0.5
			C131.9,142,137.2,140.1,137.1,138.2"/>
		<path class="st7" d="M106,112c0.7,0,1.3,0.7,1.7,1.8c0-0.3,0.1-0.5,0.1-0.8c1.5-7.4,4.5-13.2,6.7-12.8c1.1,0.2,1.8,1.9,2,4.4
			c0.1-0.1,0.1-0.2,0.2-0.2c6.8-9.8,14.6-16.1,17.4-14.1s-0.4,11.5-7.3,21.2c-0.1,0.1-0.1,0.2-0.2,0.2c2.5-0.7,4.3-0.6,4.8,0.3
			c1.1,1.9-3.2,6.7-9.7,10.7c-0.2,0.1-0.4,0.3-0.7,0.4c1.2,0,2.1,0.4,2.3,1c0.7,1.8-3.6,5.4-9.6,8c-2.9,1.3-5.7,2.1-7.9,2.4
			c-0.5,0.7-1,1-1.5,1s-0.9-0.4-1.3-1c-0.7-0.1-1.2-0.4-1.4-0.9c-0.2-0.5,0-1.1,0.4-1.8c-0.5-2.1-0.7-5.1-0.5-8.3
			C102.2,117.3,104,112,106,112"/>
		<path class="st8" d="M139.3,128c-0.2-0.9-1.2-1.5-2.7-1.8c0.3-0.1,0.6-0.2,0.9-0.4c9.1-3.6,15.8-8.7,14.8-11.4
			c-0.5-1.3-2.8-1.8-6.1-1.6c0.1-0.1,0.2-0.2,0.3-0.3c10.9-10.8,17.2-22.1,14.1-25.2c-3.1-3.1-14.5,3.1-25.4,13.9
			c-0.1,0.1-0.2,0.2-0.3,0.3c0.3-3.3-0.2-5.6-1.5-6.1c-2.7-1-7.8,5.6-11.5,14.7c-0.1,0.3-0.2,0.6-0.4,0.9c-0.3-1.6-0.9-2.6-1.8-2.7
			c-2.4-0.5-6.1,5.8-8.1,14c-1,4-1.4,7.8-1.3,10.6c-0.7,0.8-1.1,1.5-1,2.1s0.7,1.1,1.6,1.5c0.3,0.9,0.8,1.5,1.5,1.6
			c0.6,0.1,1.4-0.2,2.1-0.9c2.8,0.1,6.6-0.2,10.6-1.2C133.5,134,139.7,130.4,139.3,128"/>
	</g>
	<g>
		<path class="st9" d="M114.6,135.3c-8.6-8.7-23.5-8-33.1,1.6c-14.8,17.3-26.9,34.9-31.7,55.4c-0.4,2.5,0.2,4.6,1.4,5.8
			s3.3,1.9,5.8,1.5c20.5-4.6,38.2-16.5,55.7-31.1C122.4,158.8,123.2,144,114.6,135.3"/>
		<path class="st10" d="M117.2,138.5c2.6,8.5-0.2,19-8,26.6c-18,15.3-36.1,27.9-56.6,33.9c1.2,0.5,2.7,0.8,4.3,0.5
			c20.5-4.6,38.2-16.5,55.7-31.1C121.3,159.9,122.9,147.3,117.2,138.5"/>
		<path class="st11" d="M111.4,132.6c-8.4-2.7-19,0-26.7,7.7c-15.5,17.8-28.3,35.8-34.4,56.2c-0.5-1.2-0.7-2.7-0.4-4.4
			c4.8-20.5,16.9-38,31.7-55.4C90.1,128.4,102.6,126.8,111.4,132.6"/>
		<path class="st10" d="M95.8,141.7c-0.6,0.6-2,0-3.3-1.2c-1.2-1.3-1.8-2.7-1.2-3.3c0.6-0.6,2,0,3.3,1.2
			C95.9,139.6,96.4,141.1,95.8,141.7"/>
		<path class="st10" d="M104.3,160.3c-0.6,0.6-2,0-3.3-1.2c-1.2-1.3-1.8-2.7-1.2-3.3c0.6-0.6,2,0,3.3,1.2
			C104.4,158.3,104.9,159.8,104.3,160.3"/>
		<path class="st10" d="M110.4,146.3c-0.6,0.6-2,0-3.3-1.2c-1.2-1.3-1.8-2.7-1.2-3.3c0.6-0.6,2,0,3.3,1.2
			C110.4,144.3,111,145.8,110.4,146.3"/>
		<path class="st10" d="M86.7,157.8c-0.6,0.6-2,0-3.3-1.2c-1.2-1.3-1.8-2.7-1.2-3.3c0.6-0.6,2,0,3.3,1.2
			C86.7,155.7,87.3,157.2,86.7,157.8"/>
		<path class="st10" d="M88.1,176.4c-0.6,0.6-2,0-3.3-1.2c-1.2-1.3-1.8-2.7-1.2-3.3c0.6-0.6,2,0,3.3,1.2
			C88.1,174.4,88.6,175.9,88.1,176.4"/>
		<path class="st10" d="M74.3,171.9c-0.6,0.6-2,0-3.3-1.2c-1.2-1.3-1.8-2.7-1.2-3.3c0.6-0.6,2,0,3.3,1.2
			C74.4,169.9,74.9,171.4,74.3,171.9"/>
		<path class="st10" d="M76.6,184.3c-0.6,0.6-2,0-3.3-1.2c-1.2-1.3-1.8-2.7-1.2-3.3c0.6-0.6,2,0,3.3,1.2
			C76.7,182.3,77.2,183.7,76.6,184.3"/>
		<path class="st10" d="M66.8,182c-0.6,0.6-2,0-3.3-1.2c-1.2-1.3-1.8-2.7-1.2-3.3s2,0,3.3,1.2C66.8,179.9,67.4,181.4,66.8,182"/>
		<path class="st10" d="M61.7,192.1c-0.6,0.6-2,0-3.3-1.2c-1.2-1.3-1.8-2.7-1.2-3.3s2,0,3.3,1.2C61.8,190.1,62.3,191.6,61.7,192.1"
			/>
	</g>
</g>
<path class="st0" d="M109.8,159.2c2.5,7.7,8.9,12.5,14.3,10.8c5.4-1.7,7.8-9.4,5.3-17.1c-2.5-7.7-8.9-12.5-14.3-10.8
	C109.7,143.8,107.3,151.5,109.8,159.2"/>
<path class="st1" d="M129.4,152.8c-0.1-0.3-0.2-0.6-0.3-0.9c2,7.4-0.4,14.5-5.6,16.2c-5.2,1.7-11.3-2.7-14-9.9
	c0.1,0.3,0.2,0.6,0.3,0.9c2.5,7.7,8.9,12.5,14.3,10.8C129.5,168.2,131.9,160.5,129.4,152.8"/>
<path class="st0" d="M69.1,149.8c2.6,7.7,0.3,15.3-5.1,17.2c-5.4,1.8-11.9-2.9-14.4-10.6c-2.6-7.7-0.3-15.3,5.1-17.2
	C60.1,137.4,66.6,142.1,69.1,149.8"/>
<path class="st1" d="M69.1,149.8c-0.6-1.7-1.3-3.2-2.2-4.5c0.4,0.8,0.7,1.5,1,2.4c2.6,7.7,0.3,15.3-5.1,17.2
	c-4.2,1.4-9.1-1.2-12.3-6.1c3,6.2,8.7,9.8,13.5,8.2C69.4,165.1,71.7,157.4,69.1,149.8"/>
</svg>
